Coordinates
version=1
nRows=4
nColumns=60
inDegrees=yes

Units are S.I. units (second, meters, Newtons, ...)
If the header above contains a line with 'inDegrees', this indicates whether rotational values are in degrees (yes) or radians (no).

endheader
time	pelvis_tilt	pelvis_list	pelvis_rotation	pelvis_tx	pelvis_ty	pelvis_tz	hip_flexion_r	hip_adduction_r	hip_rotation_r	knee_angle_r_beta	knee_angle_r	ankle_angle_r	subtalar_angle_r	mtp_angle_r	hip_flexion_l	hip_adduction_l	hip_rotation_l	knee_angle_l_beta	knee_angle_l	ankle_angle_l	subtalar_angle_l	mtp_angle_l	L5_S1_Flex_Ext	L5_S1_Lat_Bending	L5_S1_axial_rotation	L4_L5_Flex_Ext	L4_L5_Lat_Bending	L4_L5_axial_rotation	L3_L4_Flex_Ext	L3_L4_Lat_Bending	L3_L4_axial_rotation	L2_L3_Flex_Ext	L2_L3_Lat_Bending	L2_L3_axial_rotation	L1_L2_Flex_Ext	L1_L2_Lat_Bending	L1_L2_axial_rotation	L1_T12_Flex_Ext	L1_T12_Lat_Bending	L1_T12_axial_rotation	Abs_r3	Abs_r2	Abs_r1	Abs_t1	Abs_t2	arm_flex_r	arm_add_r	arm_rot_r	elbow_flex_r	pro_sup_r	wrist_flex_r	wrist_dev_r	arm_flex_l	arm_add_l	arm_rot_l	elbow_flex_l	pro_sup_l	wrist_flex_l	wrist_dev_l
     27.53000000	     -0.27284440	      9.80670418	     92.31567120	      0.40050951	      0.94230100	      0.29323490	      1.71527228	     -5.33142558	     -0.34449460	      0.31068808	    -17.80111557	      8.14754276	      0.00000000	      0.00000000	      1.00214686	     -5.32012125	     -1.67373726	      0.24751019	    -14.18128901	      7.89941402	      0.00000000	      0.00000000	     -5.61940595	     -0.01431625	     -0.03102487	    -10.43579879	     -0.01904061	     -0.03296392	     -9.23212204	     -0.03480852	     -0.03296392	     -6.42241906	     -0.03480852	     -0.02714676	     -5.21818037	     -0.02919369	     -0.02520770	     -3.21092856	     -0.02217587	     -0.02326865	    -40.13885476	     -0.16194824	     -0.17255100	      0.00000000	      0.00000000	     59.26750328	    -23.69543596	     18.43248785	     60.21086519	     55.06427475	     -1.96784622	     30.90126610	     69.39560076	    -22.53197042	     35.44895817	     50.25744811	     51.10491312	      3.57579333	     25.27527846
     27.54000000	     -0.24813481	      9.53217431	     92.22484368	      0.40046967	      0.94223111	      0.29431488	      2.12946738	     -5.32402440	     -0.18503744	      0.31100989	    -17.81955431	      7.89672130	      0.00000000	      0.00000000	      1.29348857	     -5.31597482	     -1.65538804	      0.24531480	    -14.05550255	      7.70869386	      0.00000000	      0.00000000	     -5.64967762	     -0.02102064	     -0.04764673	    -10.49201630	     -0.02795745	     -0.05062465	     -9.28185536	     -0.05110958	     -0.05062465	     -6.45701655	     -0.05110958	     -0.04169089	     -5.24629063	     -0.04286528	     -0.03871297	     -3.22822579	     -0.03256097	     -0.03573505	    -40.35508224	     -0.23778966	     -0.26499683	      0.00000000	      0.00000000	     60.38795677	    -23.33174269	     18.88038157	     59.16644421	     55.89228326	     -1.88266324	     30.73009730	     70.56497454	    -22.48077114	     36.35279037	     49.22030733	     51.74698634	      3.61383315	     25.14980463
     27.55000000	     -0.25567754	      9.26862622	     92.15182400	      0.40026698	      0.94218272	      0.29528212	      2.49395529	     -5.36241787	     -0.06487468	      0.31081397	    -17.80832888	      7.73834828	      0.00000000	      0.00000000	      1.54756612	     -5.25454221	     -1.61065460	      0.24254126	    -13.89659045	      7.46543253	      0.00000000	      0.00000000	     -5.65854368	     -0.02925767	     -0.04672819	    -10.50848148	     -0.03891271	     -0.04964870	     -9.29642142	     -0.07113711	     -0.04964870	     -6.46714958	     -0.07113711	     -0.04088716	     -5.25452367	     -0.05966225	     -0.03796665	     -3.23329186	     -0.04532014	     -0.03504614	    -40.41841168	     -0.33096866	     -0.25988816	      0.00000000	      0.00000000	     61.45700390	    -22.91496168	     19.20094756	     57.49490921	     54.20669810	     -0.16404061	     28.60242785	     71.68182825	    -21.90638728	     37.01165280	     47.43993818	     49.35300380	      5.03102713	     23.45031607
     27.56000000	     -0.21844193	      8.96752075	     92.11113578	      0.40016674	      0.94214335	      0.29618488	      2.88547293	     -5.33890857	     -0.00898040	      0.30991007	    -17.75653879	      7.47790477	      0.00000000	      0.00000000	      1.81739050	     -5.26640630	     -1.63853903	      0.23831050	    -13.65418558	      7.24174236	      0.00000000	      0.00000000	     -5.67576375	     -0.03457893	     -0.06615863	    -10.54046087	     -0.04598998	     -0.07029354	     -9.32471227	     -0.08407521	     -0.07029354	     -6.48683039	     -0.08407521	     -0.05788880	     -5.27051422	     -0.07051336	     -0.05375388	     -3.24313141	     -0.05356276	     -0.04961897	    -40.54141292	     -0.39116378	     -0.36795443	      0.00000000	      0.00000000	     62.49593072	    -22.43767477	     19.45831290	     56.14553374	     54.77691194	     -0.02885998	     28.44201146	     72.69362178	    -21.56815849	     37.41725223	     46.11107105	     49.71401004	      5.00935678	     23.31627826
